<?xml version="1.0" encoding="UTF-8"?>
<svg width="174" height="40" viewBox="0 0 174 40" xmlns="http://www.w3.org/2000/svg" xmlns:xlink="http://www.w3.org/1999/xlink" xml:space="preserve" version="1.1" baseProfile="full">
 <g id="mainlayer" font-size="10" style="font-family: monospace">
<rect style="fill:#00000000" x="0" y="0" width="6" height="10"/>
<rect style="fill:#00000000" x="6" y="0" width="6" height="10"/>
<rect style="fill:#00000000" x="12" y="0" width="6" height="10"/>
<rect style="fill:#00000000" x="18" y="0" width="6" height="10"/>
<rect style="fill:#00000000" x="24" y="0" width="6" height="10"/>
<rect style="fill:#00000000" x="30" y="0" width="6" height="10"/>
<rect style="fill:#00000000" x="36" y="0" width="6" height="10"/>
<rect style="fill:#00000000" x="42" y="0" width="6" height="10"/>
<rect style="fill:#00000000" x="48" y="0" width="6" height="10"/>
<rect style="fill:#00000000" x="54" y="0" width="6" height="10"/>
<rect style="fill:#00000000" x="60" y="0" width="6" height="10"/>
<rect style="fill:#00000000" x="66" y="0" width="6" height="10"/>
<rect style="fill:#00000000" x="72" y="0" width="6" height="10"/>
<rect style="fill:#00000000" x="78" y="0" width="6" height="10"/>
<rect style="fill:#00000000" x="84" y="0" width="6" height="10"/>
<rect style="fill:#00000000" x="90" y="0" width="6" height="10"/>
<rect style="fill:#00000000" x="96" y="0" width="6" height="10"/>
<rect style="fill:#00000000" x="102" y="0" width="6" height="10"/>
<rect style="fill:#00000000" x="108" y="0" width="6" height="10"/>
<rect style="fill:#00000000" x="114" y="0" width="6" height="10"/>
<rect style="fill:#00000000" x="120" y="0" width="6" height="10"/>
<rect style="fill:#00000000" x="126" y="0" width="6" height="10"/>
<rect style="fill:#00000000" x="132" y="0" width="6" height="10"/>
<rect style="fill:#00000000" x="138" y="0" width="6" height="10"/>
<rect style="fill:#00000000" x="144" y="0" width="6" height="10"/>
<rect style="fill:#00000000" x="150" y="0" width="6" height="10"/>
<rect style="fill:#00000000" x="156" y="0" width="6" height="10"/>
<rect style="fill:#00000000" x="162" y="0" width="6" height="10"/>
<rect style="fill:#00000000" x="168" y="0" width="6" height="10"/>
<rect style="fill:#00000000" x="0" y="10" width="6" height="10"/>
<rect style="fill:#00000000" x="6" y="10" width="6" height="10"/>
<rect style="fill:#00000000" x="12" y="10" width="6" height="10"/>
<rect style="fill:#00000000" x="18" y="10" width="6" height="10"/>
<rect style="fill:#00000000" x="24" y="10" width="6" height="10"/>
<rect style="fill:#00000000" x="30" y="10" width="6" height="10"/>
<rect style="fill:#00000000" x="36" y="10" width="6" height="10"/>
<rect style="fill:#00000000" x="42" y="10" width="6" height="10"/>
<rect style="fill:#00000000" x="48" y="10" width="6" height="10"/>
<rect style="fill:#00000000" x="54" y="10" width="6" height="10"/>
<rect style="fill:#00000000" x="60" y="10" width="6" height="10"/>
<rect style="fill:#00000000" x="66" y="10" width="6" height="10"/>
<rect style="fill:#00000000" x="72" y="10" width="6" height="10"/>
<rect style="fill:#00000000" x="78" y="10" width="6" height="10"/>
<rect style="fill:#00000000" x="84" y="10" width="6" height="10"/>
<rect style="fill:#00000000" x="90" y="10" width="6" height="10"/>
<rect style="fill:#00000000" x="96" y="10" width="6" height="10"/>
<rect style="fill:#00000000" x="102" y="10" width="6" height="10"/>
<rect style="fill:#00000000" x="108" y="10" width="6" height="10"/>
<rect style="fill:#00000000" x="114" y="10" width="6" height="10"/>
<rect style="fill:#00000000" x="120" y="10" width="6" height="10"/>
<rect style="fill:#00000000" x="126" y="10" width="6" height="10"/>
<rect style="fill:#00000000" x="132" y="10" width="6" height="10"/>
<rect style="fill:#00000000" x="138" y="10" width="6" height="10"/>
<rect style="fill:#00000000" x="144" y="10" width="6" height="10"/>
<rect style="fill:#00000000" x="150" y="10" width="6" height="10"/>
<rect style="fill:#00000000" x="156" y="10" width="6" height="10"/>
<rect style="fill:#00000000" x="162" y="10" width="6" height="10"/>
<rect style="fill:#00000000" x="168" y="10" width="6" height="10"/>
<rect style="fill:#00000000" x="0" y="20" width="6" height="10"/>
<rect style="fill:#00000000" x="6" y="20" width="6" height="10"/>
<rect style="fill:#00000000" x="12" y="20" width="6" height="10"/>
<rect style="fill:#00000000" x="18" y="20" width="6" height="10"/>
<rect style="fill:#00000000" x="24" y="20" width="6" height="10"/>
<rect style="fill:#00000000" x="30" y="20" width="6" height="10"/>
<rect style="fill:#00000000" x="36" y="20" width="6" height="10"/>
<rect style="fill:#00000000" x="42" y="20" width="6" height="10"/>
<rect style="fill:#00000000" x="48" y="20" width="6" height="10"/>
<rect style="fill:#00000000" x="54" y="20" width="6" height="10"/>
<rect style="fill:#00000000" x="60" y="20" width="6" height="10"/>
<rect style="fill:#00000000" x="66" y="20" width="6" height="10"/>
<rect style="fill:#00000000" x="72" y="20" width="6" height="10"/>
<rect style="fill:#00000000" x="78" y="20" width="6" height="10"/>
<rect style="fill:#00000000" x="84" y="20" width="6" height="10"/>
<rect style="fill:#00000000" x="90" y="20" width="6" height="10"/>
<rect style="fill:#00000000" x="96" y="20" width="6" height="10"/>
<rect style="fill:#00000000" x="102" y="20" width="6" height="10"/>
<rect style="fill:#00000000" x="108" y="20" width="6" height="10"/>
<rect style="fill:#00000000" x="114" y="20" width="6" height="10"/>
<rect style="fill:#00000000" x="120" y="20" width="6" height="10"/>
<rect style="fill:#00000000" x="126" y="20" width="6" height="10"/>
<rect style="fill:#00000000" x="132" y="20" width="6" height="10"/>
<rect style="fill:#00000000" x="138" y="20" width="6" height="10"/>
<rect style="fill:#00000000" x="144" y="20" width="6" height="10"/>
<rect style="fill:#00000000" x="150" y="20" width="6" height="10"/>
<rect style="fill:#00000000" x="156" y="20" width="6" height="10"/>
<rect style="fill:#00000000" x="162" y="20" width="6" height="10"/>
<rect style="fill:#00000000" x="168" y="20" width="6" height="10"/>
<rect style="fill:#00000000" x="0" y="30" width="6" height="10"/>
<rect style="fill:#00000000" x="6" y="30" width="6" height="10"/>
<rect style="fill:#00000000" x="12" y="30" width="6" height="10"/>
<rect style="fill:#00000000" x="18" y="30" width="6" height="10"/>
<rect style="fill:#00000000" x="24" y="30" width="6" height="10"/>
<rect style="fill:#00000000" x="30" y="30" width="6" height="10"/>
<rect style="fill:#00000000" x="36" y="30" width="6" height="10"/>
<rect style="fill:#00000000" x="42" y="30" width="6" height="10"/>
<rect style="fill:#00000000" x="48" y="30" width="6" height="10"/>
<rect style="fill:#00000000" x="54" y="30" width="6" height="10"/>
<rect style="fill:#00000000" x="60" y="30" width="6" height="10"/>
<rect style="fill:#00000000" x="66" y="30" width="6" height="10"/>
<rect style="fill:#00000000" x="72" y="30" width="6" height="10"/>
<rect style="fill:#00000000" x="78" y="30" width="6" height="10"/>
<rect style="fill:#00000000" x="84" y="30" width="6" height="10"/>
<rect style="fill:#00000000" x="90" y="30" width="6" height="10"/>
<rect style="fill:#00000000" x="96" y="30" width="6" height="10"/>
<rect style="fill:#00000000" x="102" y="30" width="6" height="10"/>
<rect style="fill:#00000000" x="108" y="30" width="6" height="10"/>
<rect style="fill:#00000000" x="114" y="30" width="6" height="10"/>
<rect style="fill:#00000000" x="120" y="30" width="6" height="10"/>
<rect style="fill:#00000000" x="126" y="30" width="6" height="10"/>
<rect style="fill:#00000000" x="132" y="30" width="6" height="10"/>
<rect style="fill:#00000000" x="138" y="30" width="6" height="10"/>
<rect style="fill:#00000000" x="144" y="30" width="6" height="10"/>
<rect style="fill:#00000000" x="150" y="30" width="6" height="10"/>
<rect style="fill:#00000000" x="156" y="30" width="6" height="10"/>
<rect style="fill:#00000000" x="162" y="30" width="6" height="10"/>
<rect style="fill:#00000000" x="168" y="30" width="6" height="10"/>
<text style="fill:#55f" x="84" y="8">_</text>
<text style="fill:#55f" x="90" y="8">_</text>
<text style="fill:#55f" x="0" y="18">|</text>
<text style="fill:#55f" x="6" y="18">\</text>
<text style="fill:#55f" x="12" y="18">/</text>
<text style="fill:#55f" x="18" y="18">|</text>
<text style="fill:#55f" x="30" y="18">o</text>
<text style="fill:#55f" x="42" y="18">.</text>
<text style="fill:#00a" x="48" y="18">_</text>
<text style="fill:#00a" x="66" y="18">o</text>
<text style="fill:#00a" x="78" y="18">(</text>
<text style="fill:#00a" x="84" y="18">_</text>
<text style="fill:#00a" x="102" y="18">|</text>
<text style="fill:#00a" x="108" y="18">_</text>
<text style="fill:#00a" x="132" y="18">_</text>
<text style="fill:#aaa" x="150" y="18">|</text>
<text style="fill:#aaa" x="162" y="18">|</text>
<text style="fill:#00a" x="0" y="28">|</text>
<text style="fill:#00a" x="18" y="28">|</text>
<text style="fill:#00a" x="30" y="28">|</text>
<text style="fill:#00a" x="42" y="28">|</text>
<text style="fill:#00a" x="54" y="28">|</text>
<text style="fill:#00a" x="66" y="28">|</text>
<text style="fill:#00a" x="78" y="28">_</text>
<text style="fill:#00a" x="84" y="28">_</text>
<text style="fill:#00a" x="90" y="28">)</text>
<text style="fill:#aaa" x="102" y="28">|</text>
<text style="fill:#aaa" x="114" y="28">|</text>
<text style="fill:#aaa" x="126" y="28">(</text>
<text style="fill:#aaa" x="132" y="28">/</text>
<text style="fill:#aaa" x="138" y="28">_</text>
<text style="fill:#aaa" x="150" y="28">|</text>
<text style="fill:#aaa" x="162" y="28">|</text>
 </g>
</svg>
